<svg width="25" height="20" viewBox="0 0 25 20" fill="none" xmlns="http://www.w3.org/2000/svg">
<path opacity="0.5" fill-rule="evenodd" clip-rule="evenodd" d="M20.1616 19.9904H12.2817C11.456 19.9898 10.6643 19.6882 10.0808 19.1519L8.61695 17.8084C8.32067 17.5756 8.19162 17.21 8.28285 16.8619C8.37407 16.5138 8.67019 16.2421 9.04944 16.1583C9.42869 16.0746 9.82707 16.193 10.0808 16.465L11.5446 17.8084C11.7406 17.9868 12.0058 18.0862 12.2817 18.0848H20.1616C20.6533 18.0968 21.0868 17.7905 21.1998 17.3511L22.9335 10.6813C23.0078 10.3934 22.9321 10.0902 22.7288 9.86069C22.5255 9.63116 22.2175 9.50132 21.8953 9.50927H14.1401C13.4216 9.50892 12.7543 9.16767 12.376 8.60705C11.9977 8.04643 11.962 7.34614 12.2817 6.75559L14.0778 3.46831C14.2598 3.13455 14.2423 2.7384 14.0316 2.41922C13.8208 2.10003 13.4462 1.90252 13.0396 1.89614L8.55466 8.0705C7.70511 9.23838 7.18105 10.5799 7.02852 11.9771L6.43675 17.4273C6.27622 18.8934 4.92768 20.0073 3.3222 20H3.11456C1.39444 20 0 18.7202 0 17.1415V9.5188C0 7.9401 1.39444 6.6603 3.11456 6.6603C3.68793 6.6603 4.15275 7.0869 4.15275 7.61314C4.15275 8.13937 3.68793 8.56597 3.11456 8.56597C2.54118 8.56597 2.07637 8.99257 2.07637 9.5188V17.1415C2.07637 17.6677 2.54118 18.0943 3.11456 18.0943H3.31181C3.84698 18.0968 4.29649 17.7255 4.35 17.2367L4.94177 11.7865C5.13002 10.0835 5.76789 8.44817 6.80012 7.02238L11.2851 0.848024C11.6695 0.319238 12.3159 0.00117987 13.0085 2.92535e-06C14.1403 -0.00144676 15.1919 0.535996 15.7866 1.41979C16.3813 2.30359 16.434 3.40725 15.9258 4.33539L14.1297 7.62267H21.885C22.8371 7.62254 23.7369 8.02211 24.3278 8.70735C24.9186 9.39259 25.1355 10.2882 24.9165 11.1386L23.1827 17.8084C22.8432 19.0875 21.5959 19.9883 20.1616 19.9904Z" fill="#0F1E36"/>
</svg>
