<svg width="42" height="42" viewBox="0 0 42 42" fill="none" xmlns="http://www.w3.org/2000/svg">
<path fill-rule="evenodd" clip-rule="evenodd" d="M21.0765 41.3722C32.3812 41.3722 41.5455 32.2079 41.5455 20.9031C41.5455 9.59839 32.3812 0.434082 21.0765 0.434082C9.77173 0.434082 0.607422 9.59839 0.607422 20.9031C0.607422 32.2079 9.77173 41.3722 21.0765 41.3722Z" fill="url(#paint0_linear)"/>
<path fill-rule="evenodd" clip-rule="evenodd" d="M25.3789 10.2593H16.7746C13.2778 10.2593 10.4329 13.1042 10.4329 16.601V25.2053C10.4329 28.7022 13.2778 31.5471 16.7746 31.5471H25.3789C28.8758 31.5471 31.7207 28.7022 31.7207 25.2053V16.601C31.7206 13.1042 28.8757 10.2593 25.3789 10.2593ZM29.5791 25.2052C29.5791 27.5249 27.6986 29.4054 25.3789 29.4054H16.7746C14.4549 29.4054 12.5744 27.5249 12.5744 25.2052V16.6009C12.5744 14.2812 14.4549 12.4007 16.7746 12.4007H25.3789C27.6986 12.4007 29.5791 14.2812 29.5791 16.6009V25.2052ZM15.5705 20.903C15.5705 17.8672 18.0404 15.3973 21.0763 15.3973C24.1122 15.3973 26.5821 17.8671 26.5821 20.903C26.5821 23.9389 24.1122 26.4088 21.0763 26.4088C18.0404 26.4088 15.5705 23.9389 15.5705 20.903ZM21.077 24.2673C19.2189 24.2673 17.7127 22.7611 17.7127 20.9031C17.7127 19.045 19.219 17.5388 21.077 17.5388C22.935 17.5388 24.4412 19.045 24.4412 20.9031C24.4412 22.7611 22.9349 24.2673 21.077 24.2673ZM27.9126 15.4386C27.9126 16.1673 27.3219 16.7579 26.5933 16.7579C25.8646 16.7579 25.274 16.1673 25.274 15.4386C25.274 14.71 25.8646 14.1193 26.5933 14.1193C27.3219 14.1193 27.9126 14.71 27.9126 15.4386Z" fill="white"/>
<defs>
<linearGradient id="paint0_linear" x1="0.744197" y1="0.365695" x2="0.607423" y2="41.3038" gradientUnits="userSpaceOnUse">
<stop stop-color="#7024C4"/>
<stop offset="0.415461" stop-color="#C21975"/>
<stop offset="0.702206" stop-color="#C74C4D"/>
<stop offset="1" stop-color="#E09B3D"/>
</linearGradient>
</defs>
</svg>
