<svg width="1465" height="59" viewBox="0 0 1465 59" fill="none" xmlns="http://www.w3.org/2000/svg">
<g filter="url(#filter0_d)">
<rect x="10" y="9" width="1445" height="39" rx="3" fill="white"/>
</g>
<path fill-rule="evenodd" clip-rule="evenodd" d="M31.9099 34C30.9525 34 30.1763 33.2108 30.1763 32.2374V28.1246C30.1763 27.8001 29.9176 27.537 29.5984 27.537C29.4455 27.5233 29.2941 27.5768 29.1824 27.6839C29.0824 27.7826 29.0261 27.9183 29.0264 28.0599C29.0283 28.5796 28.8192 29.077 28.4485 29.4348C28.0748 29.7904 27.5721 29.9714 27.0616 29.9342L26.5415 29.8989C26.2224 29.8779 25.9805 29.5977 26.0012 29.2732C26.022 28.9487 26.2975 28.7028 26.6167 28.7239L27.1367 28.7591C27.3282 28.7723 27.5165 28.7042 27.6568 28.5711C27.7981 28.4377 27.8777 28.2501 27.8764 28.0541C27.8752 27.5933 28.0588 27.1519 28.3849 26.832C28.7124 26.5171 29.1477 26.3443 29.5984 26.3502C30.5559 26.3502 31.332 27.1393 31.332 28.1128V32.2256C31.332 32.5501 31.5908 32.8132 31.9099 32.8132C32.229 32.8132 32.4878 32.5501 32.4878 32.2256V25.7626C32.4878 24.7892 33.2639 24 34.2214 24C35.1788 24 35.955 24.7892 35.955 25.7626V30.463C35.955 30.7875 36.2137 31.0505 36.5328 31.0505C36.852 31.0505 37.1107 30.7875 37.1107 30.463C37.1107 29.4895 37.8868 28.7004 38.8443 28.7004H39.4221C39.7413 28.7004 40 28.9634 40 29.2879C40 29.6124 39.7413 29.8754 39.4221 29.8754H38.8443C38.5251 29.8754 38.2664 30.1385 38.2664 30.463C38.2664 31.4365 37.4903 32.2256 36.5328 32.2256C35.5754 32.2256 34.7992 31.4365 34.7992 30.463V25.7626C34.7992 25.4381 34.5405 25.1751 34.2214 25.1751C33.9022 25.1751 33.6435 25.4381 33.6435 25.7626V32.2256C33.6466 32.6951 33.4653 33.1465 33.1398 33.4796C32.8144 33.8127 32.3717 34 31.9099 34Z" fill="#0094B6"/>
<path fill-rule="evenodd" clip-rule="evenodd" d="M90.0969 34.9938H85.369C84.8736 34.9933 84.3986 34.7973 84.0485 34.4488L83.1702 33.5755C82.9924 33.4241 82.915 33.1865 82.9697 32.9602C83.0244 32.734 83.2021 32.5573 83.4297 32.5029C83.6572 32.4485 83.8962 32.5255 84.0485 32.7022L84.9268 33.5755C85.0443 33.6914 85.2035 33.7561 85.369 33.7551H90.0969C90.392 33.7629 90.6521 33.5638 90.7199 33.2782L91.7601 28.9428C91.8047 28.7557 91.7593 28.5586 91.6373 28.4094C91.5153 28.2603 91.3305 28.1759 91.1372 28.181H86.4841C86.0529 28.1808 85.6526 27.959 85.4256 27.5946C85.1986 27.2302 85.1772 26.775 85.369 26.3911L86.4467 24.2544C86.5559 24.0375 86.5454 23.78 86.4189 23.5725C86.2925 23.365 86.0677 23.2366 85.8238 23.2325L83.1328 27.2458C82.6231 28.0049 82.3086 28.8769 82.2171 29.7851L81.8621 33.3278C81.7657 34.2807 80.9566 35.0048 79.9933 35H79.8687C78.8367 35 78 34.1681 78 33.142V28.1872C78 27.1611 78.8367 26.3292 79.8687 26.3292C80.2128 26.3292 80.4916 26.6065 80.4916 26.9485C80.4916 27.2906 80.2128 27.5679 79.8687 27.5679C79.5247 27.5679 79.2458 27.8452 79.2458 28.1872V33.142C79.2458 33.484 79.5247 33.7613 79.8687 33.7613H79.9871C80.3082 33.7629 80.5779 33.5215 80.61 33.2039L80.9651 29.6613C81.078 28.5542 81.4607 27.4913 82.0801 26.5645L84.7711 22.5512C85.0017 22.2075 85.3895 22.0008 85.8051 22C86.4842 21.9991 87.1151 22.3484 87.472 22.9229C87.8288 23.4973 87.8604 24.2147 87.5555 24.818L86.4778 26.9547H91.131C91.7022 26.9547 92.2422 27.2144 92.5967 27.6598C92.9512 28.1052 93.0813 28.6873 92.9499 29.2401L91.9096 33.5755C91.7059 34.4069 90.9576 34.9924 90.0969 34.9938Z" fill="#A6ACBE"/>
<path d="M117.855 33V24.4688H120.393C121.15 24.4688 121.818 24.6367 122.396 24.9727C122.975 25.3086 123.426 25.7793 123.75 26.3848C124.074 26.9902 124.236 27.7012 124.236 28.5176V28.9512C124.236 29.7676 124.074 30.4805 123.75 31.0898C123.426 31.6953 122.971 32.166 122.385 32.502C121.803 32.834 121.121 33 120.34 33H117.855ZM120.393 25.6875H119.367V31.7871H120.34C121.125 31.7871 121.717 31.5371 122.115 31.0371C122.518 30.5332 122.719 29.8379 122.719 28.9512V28.5059C122.719 27.5996 122.518 26.9043 122.115 26.4199C121.717 25.9316 121.143 25.6875 120.393 25.6875ZM128.367 33.1172C127.738 33.1172 127.195 32.9824 126.738 32.7129C126.281 32.4395 125.93 32.0723 125.684 31.6113C125.438 31.1465 125.314 30.627 125.314 30.0527V29.8125C125.314 29.1523 125.439 28.5781 125.689 28.0898C125.939 27.5977 126.281 27.2168 126.715 26.9473C127.152 26.6777 127.646 26.543 128.197 26.543C128.807 26.543 129.312 26.6758 129.715 26.9414C130.117 27.2031 130.418 27.5684 130.617 28.0371C130.816 28.502 130.916 29.041 130.916 29.6543V30.2812H126.779C126.818 30.7617 126.984 31.1602 127.277 31.4766C127.57 31.7891 127.963 31.9453 128.455 31.9453C128.795 31.9453 129.096 31.8789 129.357 31.7461C129.619 31.6133 129.848 31.4219 130.043 31.1719L130.805 31.9336C130.602 32.2344 130.301 32.5078 129.902 32.7539C129.504 32.9961 128.992 33.1172 128.367 33.1172ZM128.191 27.709C127.805 27.709 127.494 27.8457 127.26 28.1191C127.025 28.3926 126.875 28.7637 126.809 29.2324H129.48V29.1211C129.473 28.875 129.424 28.6445 129.334 28.4297C129.248 28.2148 129.111 28.041 128.924 27.9082C128.74 27.7754 128.496 27.709 128.191 27.709ZM133.459 35.4375H132.006V26.6602H133.348L133.406 27.3105C133.605 27.0645 133.846 26.875 134.127 26.7422C134.408 26.6094 134.732 26.543 135.1 26.543C135.635 26.543 136.086 26.6777 136.453 26.9473C136.82 27.2168 137.098 27.5938 137.285 28.0781C137.477 28.5625 137.572 29.125 137.572 29.7656V29.8887C137.572 30.5059 137.477 31.0586 137.285 31.5469C137.098 32.0312 136.82 32.4141 136.453 32.6953C136.09 32.9766 135.645 33.1172 135.117 33.1172C134.758 33.1172 134.441 33.0566 134.168 32.9355C133.895 32.8145 133.658 32.6426 133.459 32.4199V35.4375ZM136.119 29.7656C136.119 29.3867 136.07 29.0449 135.973 28.7402C135.879 28.4316 135.727 28.1875 135.516 28.0078C135.309 27.8242 135.037 27.7324 134.701 27.7324C134.393 27.7324 134.137 27.7969 133.934 27.9258C133.73 28.0547 133.572 28.2305 133.459 28.4531V31.2129C133.572 31.4316 133.729 31.6094 133.928 31.7461C134.131 31.8828 134.393 31.9512 134.713 31.9512C135.049 31.9512 135.32 31.8574 135.527 31.6699C135.734 31.4824 135.885 31.2324 135.979 30.9199C136.072 30.6074 136.119 30.2637 136.119 29.8887V29.7656ZM140.303 33H138.85V24H140.303V33ZM141.568 29.7715C141.568 29.1543 141.686 28.6035 141.92 28.1191C142.154 27.6309 142.49 27.2461 142.928 26.9648C143.369 26.6836 143.898 26.543 144.516 26.543C145.141 26.543 145.674 26.6836 146.115 26.9648C146.557 27.2461 146.893 27.6309 147.123 28.1191C147.357 28.6035 147.475 29.1543 147.475 29.7715V29.8945C147.475 30.5078 147.357 31.0586 147.123 31.5469C146.893 32.0312 146.557 32.4141 146.115 32.6953C145.678 32.9766 145.148 33.1172 144.527 33.1172C143.906 33.1172 143.375 32.9766 142.934 32.6953C142.492 32.4141 142.154 32.0312 141.92 31.5469C141.686 31.0586 141.568 30.5078 141.568 29.8945V29.7715ZM143.021 29.8945C143.021 30.2695 143.072 30.6133 143.174 30.9258C143.279 31.2344 143.443 31.4824 143.666 31.6699C143.889 31.8574 144.176 31.9512 144.527 31.9512C144.875 31.9512 145.158 31.8574 145.377 31.6699C145.6 31.4824 145.762 31.2344 145.863 30.9258C145.969 30.6133 146.021 30.2695 146.021 29.8945V29.7715C146.021 29.4043 145.969 29.0645 145.863 28.752C145.762 28.4395 145.6 28.1875 145.377 27.9961C145.154 27.8047 144.867 27.709 144.516 27.709C144.168 27.709 143.883 27.8047 143.66 27.9961C143.441 28.1875 143.279 28.4395 143.174 28.752C143.072 29.0645 143.021 29.4043 143.021 29.7715V29.8945ZM152.197 26.6602H153.75L151.213 33.9609C151.139 34.1719 151.027 34.4023 150.879 34.6523C150.734 34.9023 150.531 35.1152 150.27 35.291C150.008 35.4707 149.666 35.5605 149.244 35.5605C149.115 35.5605 148.992 35.5508 148.875 35.5312C148.762 35.5117 148.652 35.4863 148.547 35.4551V34.3359C148.586 34.3398 148.633 34.3438 148.688 34.3477C148.742 34.3516 148.787 34.3535 148.822 34.3535C149.17 34.3535 149.432 34.291 149.607 34.166C149.787 34.041 149.928 33.8281 150.029 33.5273L150.234 32.9824L148.002 26.6602H149.572L150.908 30.9258L152.197 26.6602ZM155.877 30.4688C155.881 30.1055 155.912 29.7988 155.971 29.5488C156.029 29.2949 156.125 29.0664 156.258 28.8633C156.395 28.6602 156.58 28.4473 156.814 28.2246C157.084 27.9707 157.311 27.7324 157.494 27.5098C157.682 27.2832 157.775 27.0059 157.775 26.6777C157.775 26.3184 157.686 26.041 157.506 25.8457C157.326 25.6504 157.064 25.5527 156.721 25.5527C156.439 25.5527 156.186 25.6387 155.959 25.8105C155.732 25.9785 155.617 26.25 155.613 26.625H154.16C154.164 26.1211 154.279 25.7012 154.506 25.3652C154.736 25.0293 155.043 24.7773 155.426 24.6094C155.812 24.4375 156.244 24.3516 156.721 24.3516C157.51 24.3516 158.125 24.5508 158.566 24.9492C159.008 25.3438 159.229 25.9004 159.229 26.6191C159.229 26.9629 159.16 27.2734 159.023 27.5508C158.887 27.8242 158.707 28.082 158.484 28.3242C158.266 28.5625 158.029 28.8008 157.775 29.0391C157.561 29.2344 157.414 29.4473 157.336 29.6777C157.262 29.9082 157.223 30.1719 157.219 30.4688H155.877ZM155.76 32.2852C155.76 32.0664 155.832 31.8809 155.977 31.7285C156.125 31.5762 156.328 31.5 156.586 31.5C156.844 31.5 157.045 31.5762 157.189 31.7285C157.338 31.8809 157.412 32.0664 157.412 32.2852C157.412 32.5078 157.338 32.6934 157.189 32.8418C157.045 32.9902 156.844 33.0645 156.586 33.0645C156.328 33.0645 156.125 32.9902 155.977 32.8418C155.832 32.6934 155.76 32.5078 155.76 32.2852ZM165.035 33H163.523V24.4688H165.035V28.0078H168.809V24.4688H170.314V33H168.809V29.2266H165.035V33ZM171.639 29.7715C171.639 29.1543 171.756 28.6035 171.99 28.1191C172.225 27.6309 172.561 27.2461 172.998 26.9648C173.439 26.6836 173.969 26.543 174.586 26.543C175.211 26.543 175.744 26.6836 176.186 26.9648C176.627 27.2461 176.963 27.6309 177.193 28.1191C177.428 28.6035 177.545 29.1543 177.545 29.7715V29.8945C177.545 30.5078 177.428 31.0586 177.193 31.5469C176.963 32.0312 176.627 32.4141 176.186 32.6953C175.748 32.9766 175.219 33.1172 174.598 33.1172C173.977 33.1172 173.445 32.9766 173.004 32.6953C172.562 32.4141 172.225 32.0312 171.99 31.5469C171.756 31.0586 171.639 30.5078 171.639 29.8945V29.7715ZM173.092 29.8945C173.092 30.2695 173.143 30.6133 173.244 30.9258C173.35 31.2344 173.514 31.4824 173.736 31.6699C173.959 31.8574 174.246 31.9512 174.598 31.9512C174.945 31.9512 175.229 31.8574 175.447 31.6699C175.67 31.4824 175.832 31.2344 175.934 30.9258C176.039 30.6133 176.092 30.2695 176.092 29.8945V29.7715C176.092 29.4043 176.039 29.0645 175.934 28.752C175.832 28.4395 175.67 28.1875 175.447 27.9961C175.225 27.8047 174.938 27.709 174.586 27.709C174.238 27.709 173.953 27.8047 173.73 27.9961C173.512 28.1875 173.35 28.4395 173.244 28.752C173.143 29.0645 173.092 29.4043 173.092 29.7715V29.8945ZM178.676 25.002C178.676 24.7793 178.748 24.5957 178.893 24.4512C179.037 24.3027 179.238 24.2285 179.496 24.2285C179.754 24.2285 179.957 24.3027 180.105 24.4512C180.254 24.5957 180.328 24.7793 180.328 25.002C180.328 25.2207 180.254 25.4043 180.105 25.5527C179.957 25.6973 179.754 25.7695 179.496 25.7695C179.238 25.7695 179.037 25.6973 178.893 25.5527C178.748 25.4043 178.676 25.2207 178.676 25.002ZM180.252 26.6602V33.5156C180.252 34.1797 180.084 34.6855 179.748 35.0332C179.416 35.3848 178.934 35.5605 178.301 35.5605C178.023 35.5605 177.764 35.5273 177.521 35.4609L177.527 34.3125C177.703 34.3477 177.877 34.3652 178.049 34.3652C178.287 34.3652 178.471 34.2988 178.6 34.166C178.732 34.0332 178.799 33.8164 178.799 33.5156V26.6602H180.252ZM184.559 33.1172C183.93 33.1172 183.387 32.9824 182.93 32.7129C182.473 32.4395 182.121 32.0723 181.875 31.6113C181.629 31.1465 181.506 30.627 181.506 30.0527V29.8125C181.506 29.1523 181.631 28.5781 181.881 28.0898C182.131 27.5977 182.473 27.2168 182.906 26.9473C183.344 26.6777 183.838 26.543 184.389 26.543C184.998 26.543 185.504 26.6758 185.906 26.9414C186.309 27.2031 186.609 27.5684 186.809 28.0371C187.008 28.502 187.107 29.041 187.107 29.6543V30.2812H182.971C183.01 30.7617 183.176 31.1602 183.469 31.4766C183.762 31.7891 184.154 31.9453 184.646 31.9453C184.986 31.9453 185.287 31.8789 185.549 31.7461C185.811 31.6133 186.039 31.4219 186.234 31.1719L186.996 31.9336C186.793 32.2344 186.492 32.5078 186.094 32.7539C185.695 32.9961 185.184 33.1172 184.559 33.1172ZM184.383 27.709C183.996 27.709 183.686 27.8457 183.451 28.1191C183.217 28.3926 183.066 28.7637 183 29.2324H185.672V29.1211C185.664 28.875 185.615 28.6445 185.525 28.4297C185.439 28.2148 185.303 28.041 185.115 27.9082C184.932 27.7754 184.688 27.709 184.383 27.709ZM192.621 33H191.168V26.6602H192.533L192.58 27.4102C192.803 27.1328 193.07 26.9199 193.383 26.7715C193.695 26.6191 194.043 26.543 194.426 26.543C195.035 26.543 195.523 26.7227 195.891 27.082C196.262 27.4375 196.447 28.0488 196.447 28.916V33H194.988V28.9043C194.988 28.4629 194.893 28.1582 194.701 27.9902C194.514 27.8184 194.24 27.7324 193.881 27.7324C193.592 27.7324 193.34 27.8027 193.125 27.9434C192.914 28.0801 192.746 28.2656 192.621 28.5V33ZM201.434 28.7168C201.434 28.3887 201.342 28.127 201.158 27.9316C200.979 27.7363 200.705 27.6387 200.338 27.6387C200.006 27.6387 199.74 27.7207 199.541 27.8848C199.346 28.0488 199.248 28.2539 199.248 28.5H197.795C197.795 28.1602 197.902 27.8418 198.117 27.5449C198.332 27.2441 198.635 27.002 199.025 26.8184C199.42 26.6348 199.885 26.543 200.42 26.543C201.135 26.543 201.725 26.7246 202.189 27.0879C202.654 27.4512 202.887 27.998 202.887 28.7285V31.5234C202.887 32.1016 202.969 32.5605 203.133 32.9004V33H201.645C201.578 32.8516 201.525 32.6504 201.486 32.3965C201.303 32.5957 201.07 32.7656 200.789 32.9062C200.512 33.0469 200.184 33.1172 199.805 33.1172C199.391 33.1172 199.021 33.0352 198.697 32.8711C198.373 32.707 198.117 32.4824 197.93 32.1973C197.746 31.9121 197.654 31.5879 197.654 31.2246C197.654 30.5527 197.906 30.0371 198.41 29.6777C198.914 29.3184 199.629 29.1387 200.555 29.1387H201.434V28.7168ZM200.092 31.9629C200.42 31.9629 200.701 31.8867 200.936 31.7344C201.17 31.5781 201.336 31.4043 201.434 31.2129V30.0352H200.66C200.145 30.0352 199.756 30.1309 199.494 30.3223C199.236 30.5098 199.107 30.7656 199.107 31.0898C199.107 31.3398 199.191 31.5488 199.359 31.7168C199.531 31.8809 199.775 31.9629 200.092 31.9629ZM202.611 24.1289C202.611 24.5586 202.486 24.916 202.236 25.2012C201.99 25.4863 201.682 25.6289 201.311 25.6289C201.053 25.6289 200.846 25.5859 200.689 25.5C200.533 25.4102 200.385 25.3223 200.244 25.2363C200.104 25.1465 199.928 25.1016 199.717 25.1016C199.568 25.1016 199.443 25.1562 199.342 25.2656C199.24 25.375 199.189 25.5195 199.189 25.6992L198.305 25.6523C198.305 25.2266 198.428 24.8672 198.674 24.5742C198.92 24.2812 199.23 24.1348 199.605 24.1348C199.82 24.1348 200.01 24.1777 200.174 24.2637C200.338 24.3496 200.498 24.4375 200.654 24.5273C200.814 24.6133 200.996 24.6562 201.199 24.6562C201.348 24.6562 201.473 24.6035 201.574 24.498C201.68 24.3887 201.732 24.2422 201.732 24.0586L202.611 24.1289ZM204.088 29.7715C204.088 29.1543 204.205 28.6035 204.439 28.1191C204.674 27.6309 205.01 27.2461 205.447 26.9648C205.889 26.6836 206.418 26.543 207.035 26.543C207.66 26.543 208.193 26.6836 208.635 26.9648C209.076 27.2461 209.412 27.6309 209.643 28.1191C209.877 28.6035 209.994 29.1543 209.994 29.7715V29.8945C209.994 30.5078 209.877 31.0586 209.643 31.5469C209.412 32.0312 209.076 32.4141 208.635 32.6953C208.197 32.9766 207.668 33.1172 207.047 33.1172C206.426 33.1172 205.895 32.9766 205.453 32.6953C205.012 32.4141 204.674 32.0312 204.439 31.5469C204.205 31.0586 204.088 30.5078 204.088 29.8945V29.7715ZM205.541 29.8945C205.541 30.2695 205.592 30.6133 205.693 30.9258C205.799 31.2344 205.963 31.4824 206.186 31.6699C206.408 31.8574 206.695 31.9512 207.047 31.9512C207.395 31.9512 207.678 31.8574 207.896 31.6699C208.119 31.4824 208.281 31.2344 208.383 30.9258C208.488 30.6133 208.541 30.2695 208.541 29.8945V29.7715C208.541 29.4043 208.488 29.0645 208.383 28.752C208.281 28.4395 208.119 28.1875 207.896 27.9961C207.674 27.8047 207.387 27.709 207.035 27.709C206.688 27.709 206.402 27.8047 206.18 27.9961C205.961 28.1875 205.799 28.4395 205.693 28.752C205.592 29.0645 205.541 29.4043 205.541 29.7715V29.8945ZM212.531 32.6543C212.531 33.0645 212.43 33.4824 212.227 33.9082C212.027 34.334 211.76 34.6855 211.424 34.9629L210.645 34.5176C210.805 34.252 210.943 33.9805 211.061 33.7031C211.182 33.4258 211.242 33.0957 211.242 32.7129V31.623H212.531V32.6543ZM218.303 33H216.85V24H218.303V27.3691C218.518 27.1074 218.773 26.9043 219.07 26.7598C219.371 26.6152 219.701 26.543 220.061 26.543C220.686 26.543 221.188 26.7266 221.566 27.0938C221.945 27.457 222.135 28.0723 222.135 28.9395V33H220.676V28.9277C220.676 28.4824 220.58 28.1719 220.389 27.9961C220.197 27.8203 219.922 27.7324 219.562 27.7324C219.266 27.7324 219.012 27.8008 218.801 27.9375C218.594 28.0703 218.428 28.25 218.303 28.4766V33ZM223.283 29.7715C223.283 29.1543 223.4 28.6035 223.635 28.1191C223.869 27.6309 224.205 27.2461 224.643 26.9648C225.084 26.6836 225.613 26.543 226.23 26.543C226.855 26.543 227.389 26.6836 227.83 26.9648C228.271 27.2461 228.607 27.6309 228.838 28.1191C229.072 28.6035 229.189 29.1543 229.189 29.7715V29.8945C229.189 30.5078 229.072 31.0586 228.838 31.5469C228.607 32.0312 228.271 32.4141 227.83 32.6953C227.393 32.9766 226.863 33.1172 226.242 33.1172C225.621 33.1172 225.09 32.9766 224.648 32.6953C224.207 32.4141 223.869 32.0312 223.635 31.5469C223.4 31.0586 223.283 30.5078 223.283 29.8945V29.7715ZM224.736 29.8945C224.736 30.2695 224.787 30.6133 224.889 30.9258C224.994 31.2344 225.158 31.4824 225.381 31.6699C225.604 31.8574 225.891 31.9512 226.242 31.9512C226.59 31.9512 226.873 31.8574 227.092 31.6699C227.314 31.4824 227.477 31.2344 227.578 30.9258C227.684 30.6133 227.736 30.2695 227.736 29.8945V29.7715C227.736 29.4043 227.684 29.0645 227.578 28.752C227.477 28.4395 227.314 28.1875 227.092 27.9961C226.869 27.8047 226.582 27.709 226.23 27.709C225.883 27.709 225.598 27.8047 225.375 27.9961C225.156 28.1875 224.994 28.4395 224.889 28.752C224.787 29.0645 224.736 29.4043 224.736 29.7715V29.8945ZM230.32 25.002C230.32 24.7793 230.393 24.5957 230.537 24.4512C230.682 24.3027 230.883 24.2285 231.141 24.2285C231.398 24.2285 231.602 24.3027 231.75 24.4512C231.898 24.5957 231.973 24.7793 231.973 25.002C231.973 25.2207 231.898 25.4043 231.75 25.5527C231.602 25.6973 231.398 25.7695 231.141 25.7695C230.883 25.7695 230.682 25.6973 230.537 25.5527C230.393 25.4043 230.32 25.2207 230.32 25.002ZM231.896 26.6602V33.5156C231.896 34.1797 231.729 34.6855 231.393 35.0332C231.061 35.3848 230.578 35.5605 229.945 35.5605C229.668 35.5605 229.408 35.5273 229.166 35.4609L229.172 34.3125C229.348 34.3477 229.521 34.3652 229.693 34.3652C229.932 34.3652 230.115 34.2988 230.244 34.166C230.377 34.0332 230.443 33.8164 230.443 33.5156V26.6602H231.896ZM236.203 33.1172C235.574 33.1172 235.031 32.9824 234.574 32.7129C234.117 32.4395 233.766 32.0723 233.52 31.6113C233.273 31.1465 233.15 30.627 233.15 30.0527V29.8125C233.15 29.1523 233.275 28.5781 233.525 28.0898C233.775 27.5977 234.117 27.2168 234.551 26.9473C234.988 26.6777 235.482 26.543 236.033 26.543C236.643 26.543 237.148 26.6758 237.551 26.9414C237.953 27.2031 238.254 27.5684 238.453 28.0371C238.652 28.502 238.752 29.041 238.752 29.6543V30.2812H234.615C234.654 30.7617 234.82 31.1602 235.113 31.4766C235.406 31.7891 235.799 31.9453 236.291 31.9453C236.631 31.9453 236.932 31.8789 237.193 31.7461C237.455 31.6133 237.684 31.4219 237.879 31.1719L238.641 31.9336C238.438 32.2344 238.137 32.5078 237.738 32.7539C237.34 32.9961 236.828 33.1172 236.203 33.1172ZM236.027 27.709C235.641 27.709 235.33 27.8457 235.096 28.1191C234.861 28.3926 234.711 28.7637 234.645 29.2324H237.316V29.1211C237.309 28.875 237.26 28.6445 237.17 28.4297C237.084 28.2148 236.947 28.041 236.76 27.9082C236.576 27.7754 236.332 27.709 236.027 27.709ZM245.637 33.1172C245.008 33.1172 244.465 32.9824 244.008 32.7129C243.551 32.4395 243.199 32.0723 242.953 31.6113C242.707 31.1465 242.584 30.627 242.584 30.0527V29.8125C242.584 29.1523 242.709 28.5781 242.959 28.0898C243.209 27.5977 243.551 27.2168 243.984 26.9473C244.422 26.6777 244.916 26.543 245.467 26.543C246.076 26.543 246.582 26.6758 246.984 26.9414C247.387 27.2031 247.688 27.5684 247.887 28.0371C248.086 28.502 248.186 29.041 248.186 29.6543V30.2812H244.049C244.088 30.7617 244.254 31.1602 244.547 31.4766C244.84 31.7891 245.232 31.9453 245.725 31.9453C246.064 31.9453 246.365 31.8789 246.627 31.7461C246.889 31.6133 247.117 31.4219 247.312 31.1719L248.074 31.9336C247.871 32.2344 247.57 32.5078 247.172 32.7539C246.773 32.9961 246.262 33.1172 245.637 33.1172ZM245.461 27.709C245.074 27.709 244.764 27.8457 244.529 28.1191C244.295 28.3926 244.145 28.7637 244.078 29.2324H246.75V29.1211C246.742 28.875 246.693 28.6445 246.604 28.4297C246.518 28.2148 246.381 28.041 246.193 27.9082C246.01 27.7754 245.766 27.709 245.461 27.709ZM245.771 24H247.406L245.801 25.7754H244.629L245.771 24ZM252 29.7773C252 29.1367 252.1 28.5742 252.299 28.0898C252.502 27.6016 252.789 27.2227 253.16 26.9531C253.531 26.6797 253.977 26.543 254.496 26.543C254.84 26.543 255.145 26.6055 255.41 26.7305C255.68 26.8516 255.914 27.0254 256.113 27.252V24H257.566V33H256.248L256.178 32.3262C255.979 32.5762 255.738 32.7715 255.457 32.9121C255.176 33.0488 254.852 33.1172 254.484 33.1172C253.973 33.1172 253.531 32.9785 253.16 32.7012C252.789 32.4199 252.502 32.0371 252.299 31.5527C252.1 31.0684 252 30.5176 252 29.9004V29.7773ZM253.453 29.9004C253.453 30.2754 253.5 30.6172 253.594 30.9258C253.688 31.2305 253.836 31.4746 254.039 31.6582C254.246 31.8379 254.518 31.9277 254.854 31.9277C255.166 31.9277 255.424 31.8574 255.627 31.7168C255.834 31.5762 255.996 31.3906 256.113 31.1602V28.4824C255.996 28.252 255.834 28.0703 255.627 27.9375C255.424 27.8008 255.17 27.7324 254.865 27.7324C254.529 27.7324 254.258 27.8242 254.051 28.0078C253.844 28.1914 253.691 28.4375 253.594 28.7461C253.5 29.0547 253.453 29.3984 253.453 29.7773V29.9004ZM259.037 25.002C259.037 24.7793 259.109 24.5957 259.254 24.4512C259.398 24.3027 259.6 24.2285 259.857 24.2285C260.115 24.2285 260.318 24.3027 260.467 24.4512C260.615 24.5957 260.689 24.7793 260.689 25.002C260.689 25.2207 260.615 25.4043 260.467 25.5527C260.318 25.6973 260.115 25.7695 259.857 25.7695C259.6 25.7695 259.398 25.6973 259.254 25.5527C259.109 25.4043 259.037 25.2207 259.037 25.002ZM260.584 33H259.131V26.6602H260.584V33ZM265.676 28.7168C265.676 28.3887 265.584 28.127 265.4 27.9316C265.221 27.7363 264.947 27.6387 264.58 27.6387C264.248 27.6387 263.982 27.7207 263.783 27.8848C263.588 28.0488 263.49 28.2539 263.49 28.5H262.037C262.037 28.1602 262.145 27.8418 262.359 27.5449C262.574 27.2441 262.877 27.002 263.268 26.8184C263.662 26.6348 264.127 26.543 264.662 26.543C265.377 26.543 265.967 26.7246 266.432 27.0879C266.896 27.4512 267.129 27.998 267.129 28.7285V31.5234C267.129 32.1016 267.211 32.5605 267.375 32.9004V33H265.887C265.82 32.8516 265.768 32.6504 265.729 32.3965C265.545 32.5957 265.312 32.7656 265.031 32.9062C264.754 33.0469 264.426 33.1172 264.047 33.1172C263.633 33.1172 263.264 33.0352 262.939 32.8711C262.615 32.707 262.359 32.4824 262.172 32.1973C261.988 31.9121 261.896 31.5879 261.896 31.2246C261.896 30.5527 262.148 30.0371 262.652 29.6777C263.156 29.3184 263.871 29.1387 264.797 29.1387H265.676V28.7168ZM264.334 31.9629C264.662 31.9629 264.943 31.8867 265.178 31.7344C265.412 31.5781 265.578 31.4043 265.676 31.2129V30.0352H264.902C264.387 30.0352 263.998 30.1309 263.736 30.3223C263.479 30.5098 263.35 30.7656 263.35 31.0898C263.35 31.3398 263.434 31.5488 263.602 31.7168C263.773 31.8809 264.018 31.9629 264.334 31.9629ZM271.324 29.7773C271.324 29.1367 271.424 28.5742 271.623 28.0898C271.826 27.6016 272.113 27.2227 272.484 26.9531C272.855 26.6797 273.301 26.543 273.82 26.543C274.164 26.543 274.469 26.6055 274.734 26.7305C275.004 26.8516 275.238 27.0254 275.438 27.252V24H276.891V33H275.572L275.502 32.3262C275.303 32.5762 275.062 32.7715 274.781 32.9121C274.5 33.0488 274.176 33.1172 273.809 33.1172C273.297 33.1172 272.855 32.9785 272.484 32.7012C272.113 32.4199 271.826 32.0371 271.623 31.5527C271.424 31.0684 271.324 30.5176 271.324 29.9004V29.7773ZM272.777 29.9004C272.777 30.2754 272.824 30.6172 272.918 30.9258C273.012 31.2305 273.16 31.4746 273.363 31.6582C273.57 31.8379 273.842 31.9277 274.178 31.9277C274.49 31.9277 274.748 31.8574 274.951 31.7168C275.158 31.5762 275.32 31.3906 275.438 31.1602V28.4824C275.32 28.252 275.158 28.0703 274.951 27.9375C274.748 27.8008 274.494 27.7324 274.189 27.7324C273.854 27.7324 273.582 27.8242 273.375 28.0078C273.168 28.1914 273.016 28.4375 272.918 28.7461C272.824 29.0547 272.777 29.3984 272.777 29.7773V29.9004ZM281.168 33.1172C280.539 33.1172 279.996 32.9824 279.539 32.7129C279.082 32.4395 278.73 32.0723 278.484 31.6113C278.238 31.1465 278.115 30.627 278.115 30.0527V29.8125C278.115 29.1523 278.24 28.5781 278.49 28.0898C278.74 27.5977 279.082 27.2168 279.516 26.9473C279.953 26.6777 280.447 26.543 280.998 26.543C281.607 26.543 282.113 26.6758 282.516 26.9414C282.918 27.2031 283.219 27.5684 283.418 28.0371C283.617 28.502 283.717 29.041 283.717 29.6543V30.2812H279.58C279.619 30.7617 279.785 31.1602 280.078 31.4766C280.371 31.7891 280.764 31.9453 281.256 31.9453C281.596 31.9453 281.896 31.8789 282.158 31.7461C282.42 31.6133 282.648 31.4219 282.844 31.1719L283.605 31.9336C283.402 32.2344 283.102 32.5078 282.703 32.7539C282.305 32.9961 281.793 33.1172 281.168 33.1172ZM280.992 27.709C280.605 27.709 280.295 27.8457 280.061 28.1191C279.826 28.3926 279.676 28.7637 279.609 29.2324H282.281V29.1211C282.273 28.875 282.225 28.6445 282.135 28.4297C282.049 28.2148 281.912 28.041 281.725 27.9082C281.541 27.7754 281.297 27.709 280.992 27.709ZM291.334 31.2715C291.334 31.1387 291.299 31.0176 291.229 30.9082C291.158 30.7949 291.025 30.6934 290.83 30.6035C290.635 30.5137 290.35 30.4277 289.975 30.3457C289.303 30.2051 288.756 29.9902 288.334 29.7012C287.916 29.4121 287.707 29 287.707 28.4648C287.707 28.1211 287.805 27.8047 288 27.5156C288.199 27.2227 288.482 26.9883 288.85 26.8125C289.217 26.6328 289.654 26.543 290.162 26.543C290.693 26.543 291.15 26.6328 291.533 26.8125C291.916 26.9883 292.209 27.2285 292.412 27.5332C292.619 27.834 292.723 28.1758 292.723 28.5586H291.27C291.27 28.3086 291.176 28.0898 290.988 27.9023C290.805 27.7109 290.527 27.6152 290.156 27.6152C289.809 27.6152 289.549 27.6953 289.377 27.8555C289.205 28.0117 289.119 28.1934 289.119 28.4004C289.119 28.6074 289.207 28.7754 289.383 28.9043C289.562 29.0293 289.904 29.1445 290.408 29.25C291.135 29.4023 291.707 29.6211 292.125 29.9062C292.547 30.1875 292.758 30.6191 292.758 31.2012C292.758 31.5723 292.65 31.9023 292.436 32.1914C292.225 32.4805 291.926 32.707 291.539 32.8711C291.152 33.0352 290.699 33.1172 290.18 33.1172C289.598 33.1172 289.107 33.0137 288.709 32.8066C288.311 32.5996 288.008 32.334 287.801 32.0098C287.598 31.6855 287.496 31.3516 287.496 31.0078H288.896C288.916 31.3867 289.059 31.6543 289.324 31.8105C289.59 31.9668 289.881 32.0449 290.197 32.0449C290.568 32.0449 290.85 31.9727 291.041 31.8281C291.236 31.6797 291.334 31.4941 291.334 31.2715ZM293.713 29.7715C293.713 29.1543 293.83 28.6035 294.064 28.1191C294.299 27.6309 294.635 27.2461 295.072 26.9648C295.514 26.6836 296.043 26.543 296.66 26.543C297.285 26.543 297.818 26.6836 298.26 26.9648C298.701 27.2461 299.037 27.6309 299.268 28.1191C299.502 28.6035 299.619 29.1543 299.619 29.7715V29.8945C299.619 30.5078 299.502 31.0586 299.268 31.5469C299.037 32.0312 298.701 32.4141 298.26 32.6953C297.822 32.9766 297.293 33.1172 296.672 33.1172C296.051 33.1172 295.52 32.9766 295.078 32.6953C294.637 32.4141 294.299 32.0312 294.064 31.5469C293.83 31.0586 293.713 30.5078 293.713 29.8945V29.7715ZM295.166 29.8945C295.166 30.2695 295.217 30.6133 295.318 30.9258C295.424 31.2344 295.588 31.4824 295.811 31.6699C296.033 31.8574 296.32 31.9512 296.672 31.9512C297.02 31.9512 297.303 31.8574 297.521 31.6699C297.744 31.4824 297.906 31.2344 298.008 30.9258C298.113 30.6133 298.166 30.2695 298.166 29.8945V29.7715C298.166 29.4043 298.113 29.0645 298.008 28.752C297.906 28.4395 297.744 28.1875 297.521 27.9961C297.299 27.8047 297.012 27.709 296.66 27.709C296.312 27.709 296.027 27.8047 295.805 27.9961C295.586 28.1875 295.424 28.4395 295.318 28.752C295.217 29.0645 295.166 29.4043 295.166 29.7715V29.8945ZM302.256 33H300.803V26.6602H302.186L302.227 27.3926C302.387 27.1309 302.586 26.9238 302.824 26.7715C303.066 26.6191 303.35 26.543 303.674 26.543C303.756 26.543 303.848 26.5508 303.949 26.5664C304.051 26.582 304.127 26.5996 304.178 26.6191L304.166 27.9961C304.076 27.9844 303.98 27.9746 303.879 27.9668C303.781 27.9551 303.684 27.9492 303.586 27.9492C303.242 27.9492 302.961 28.0156 302.742 28.1484C302.523 28.2812 302.361 28.4688 302.256 28.7109V33ZM306.51 33H305.057V26.6602H306.439L306.48 27.3926C306.641 27.1309 306.84 26.9238 307.078 26.7715C307.32 26.6191 307.604 26.543 307.928 26.543C308.01 26.543 308.102 26.5508 308.203 26.5664C308.305 26.582 308.381 26.5996 308.432 26.6191L308.42 27.9961C308.33 27.9844 308.234 27.9746 308.133 27.9668C308.035 27.9551 307.938 27.9492 307.84 27.9492C307.496 27.9492 307.215 28.0156 306.996 28.1484C306.777 28.2812 306.615 28.4688 306.51 28.7109V33ZM309.311 25.002C309.311 24.7793 309.383 24.5957 309.527 24.4512C309.672 24.3027 309.873 24.2285 310.131 24.2285C310.389 24.2285 310.592 24.3027 310.74 24.4512C310.889 24.5957 310.963 24.7793 310.963 25.002C310.963 25.2207 310.889 25.4043 310.74 25.5527C310.592 25.6973 310.389 25.7695 310.131 25.7695C309.873 25.7695 309.672 25.6973 309.527 25.5527C309.383 25.4043 309.311 25.2207 309.311 25.002ZM310.857 33H309.404V26.6602H310.857V33ZM313.846 33H312.393V26.6602H313.775L313.816 27.3926C313.977 27.1309 314.176 26.9238 314.414 26.7715C314.656 26.6191 314.939 26.543 315.264 26.543C315.346 26.543 315.438 26.5508 315.539 26.5664C315.641 26.582 315.717 26.5996 315.768 26.6191L315.756 27.9961C315.666 27.9844 315.57 27.9746 315.469 27.9668C315.371 27.9551 315.273 27.9492 315.176 27.9492C314.832 27.9492 314.551 28.0156 314.332 28.1484C314.113 28.2812 313.951 28.4688 313.846 28.7109V33Z" fill="#A6ACBE"/>
<path d="M1198.09 24.4102V25.6113H1197.99C1197.39 25.6113 1196.89 25.7188 1196.49 25.9336C1196.09 26.1484 1195.78 26.4395 1195.56 26.8066C1195.34 27.1738 1195.21 27.5918 1195.15 28.0605C1195.37 27.8301 1195.62 27.6523 1195.92 27.5273C1196.22 27.3984 1196.55 27.334 1196.91 27.334C1197.46 27.334 1197.92 27.4688 1198.28 27.7383C1198.64 28.0039 1198.91 28.3555 1199.08 28.793C1199.26 29.2266 1199.35 29.6953 1199.35 30.1992C1199.35 30.7461 1199.23 31.2402 1199.01 31.6816C1198.79 32.123 1198.47 32.4727 1198.06 32.7305C1197.64 32.9883 1197.14 33.1172 1196.56 33.1172C1195.95 33.1172 1195.43 32.9668 1195 32.666C1194.57 32.3613 1194.24 31.9551 1194.01 31.4473C1193.78 30.9395 1193.67 30.3809 1193.67 29.7715V29.1797C1193.67 28.5273 1193.75 27.9141 1193.91 27.3398C1194.08 26.7617 1194.33 26.2539 1194.67 25.8164C1195.01 25.3789 1195.45 25.0352 1195.99 24.7852C1196.52 24.5352 1197.16 24.4102 1197.91 24.4102H1198.09ZM1195.12 29.9121C1195.12 30.584 1195.26 31.0898 1195.54 31.4297C1195.81 31.7695 1196.15 31.9395 1196.54 31.9395C1196.97 31.9395 1197.3 31.7793 1197.54 31.459C1197.78 31.1387 1197.9 30.7285 1197.9 30.2285C1197.9 29.7559 1197.79 29.3516 1197.55 29.0156C1197.32 28.6758 1196.98 28.5059 1196.53 28.5059C1196.2 28.5059 1195.91 28.5977 1195.66 28.7812C1195.41 28.9648 1195.23 29.1855 1195.12 29.4434V29.9121ZM1206.15 25.2773L1202.76 33H1201.23L1204.62 25.6348H1200.23V24.4688H1206.15V25.2773ZM1208.74 32.6543C1208.74 33.0645 1208.64 33.4824 1208.43 33.9082C1208.23 34.334 1207.97 34.6855 1207.63 34.9629L1206.85 34.5176C1207.01 34.252 1207.15 33.9805 1207.27 33.7031C1207.39 33.4258 1207.45 33.0957 1207.45 32.7129V31.623H1208.74V32.6543ZM1214.84 33H1213.39V31.0957H1209.73L1209.69 30.2051L1213.35 24.4688H1214.84V29.9297H1215.9V31.0957H1214.84V33ZM1211.19 29.9297H1213.39V26.4375L1213.27 26.6426L1211.19 29.9297ZM1222.58 33H1216.84V31.998L1219.61 28.9805C1220.07 28.4766 1220.38 28.0684 1220.55 27.7559C1220.72 27.4434 1220.8 27.1465 1220.8 26.8652C1220.8 26.4707 1220.69 26.1484 1220.47 25.8984C1220.26 25.6445 1219.95 25.5176 1219.55 25.5176C1219.08 25.5176 1218.72 25.666 1218.48 25.9629C1218.24 26.2559 1218.12 26.6289 1218.12 27.082H1216.67C1216.67 26.582 1216.79 26.125 1217.01 25.7109C1217.24 25.2969 1217.57 24.9668 1218 24.7207C1218.44 24.4746 1218.96 24.3516 1219.57 24.3516C1220.43 24.3516 1221.09 24.5645 1221.56 24.9902C1222.03 25.416 1222.26 25.9902 1222.26 26.7129C1222.26 27.2559 1222.1 27.7832 1221.76 28.2949C1221.43 28.8066 1221.01 29.334 1220.49 29.877L1218.67 31.834H1222.58V33ZM1229.25 29.4258C1229.25 30.3086 1229.14 31.0215 1228.91 31.5645C1228.68 32.1074 1228.35 32.502 1227.93 32.748C1227.52 32.9941 1227.02 33.1172 1226.46 33.1172C1225.9 33.1172 1225.41 32.9941 1224.98 32.748C1224.56 32.502 1224.23 32.1074 1224 31.5645C1223.76 31.0215 1223.64 30.3086 1223.64 29.4258V28.0137C1223.64 27.127 1223.76 26.416 1223.99 25.8809C1224.22 25.3457 1224.55 24.957 1224.97 24.7148C1225.39 24.4727 1225.88 24.3516 1226.45 24.3516C1227.01 24.3516 1227.5 24.4727 1227.92 24.7148C1228.34 24.957 1228.67 25.3457 1228.9 25.8809C1229.13 26.416 1229.25 27.127 1229.25 28.0137V29.4258ZM1227.8 27.7969C1227.8 26.9609 1227.68 26.373 1227.45 26.0332C1227.21 25.6934 1226.88 25.5234 1226.45 25.5234C1226.02 25.5234 1225.68 25.6934 1225.45 26.0332C1225.21 26.373 1225.1 26.9609 1225.1 27.7969V29.6309C1225.1 30.4707 1225.22 31.0684 1225.46 31.4238C1225.69 31.7754 1226.03 31.9512 1226.46 31.9512C1226.89 31.9512 1227.23 31.7754 1227.45 31.4238C1227.68 31.0684 1227.8 30.4707 1227.8 29.6309V27.7969Z" fill="#A6ACBE"/>
<path d="M1268.72 27.6172C1269.21 27.7852 1269.57 28.0449 1269.8 28.3965C1270.04 28.748 1270.15 29.1523 1270.15 29.6094C1270.15 30.1289 1270.03 30.5781 1269.78 30.957C1269.53 31.3359 1269.18 31.625 1268.75 31.8242C1268.31 32.0195 1267.81 32.1172 1267.26 32.1172C1266.76 32.1172 1266.29 32.0254 1265.86 31.8418C1265.44 31.6543 1265.1 31.3789 1264.84 31.0156C1264.58 30.6523 1264.46 30.2148 1264.46 29.7031H1265.92C1265.92 29.9453 1265.97 30.1621 1266.09 30.3535C1266.2 30.541 1266.36 30.6875 1266.57 30.793C1266.77 30.8945 1267.01 30.9453 1267.29 30.9453C1267.73 30.9453 1268.07 30.8281 1268.32 30.5938C1268.57 30.3594 1268.69 30.0293 1268.69 29.6035C1268.69 29.1348 1268.56 28.7871 1268.28 28.5605C1268.01 28.334 1267.63 28.2207 1267.14 28.2207H1266.29V27.418V27.0723H1267.14C1267.61 27.0723 1267.96 26.9551 1268.2 26.7207C1268.44 26.4863 1268.56 26.1719 1268.56 25.7773C1268.56 25.3789 1268.46 25.0703 1268.24 24.8516C1268.03 24.6328 1267.71 24.5234 1267.29 24.5234C1267.04 24.5234 1266.82 24.5723 1266.62 24.6699C1266.43 24.7637 1266.28 24.8984 1266.16 25.0742C1266.05 25.25 1266 25.4551 1266 25.6895H1264.54C1264.54 25.2441 1264.66 24.8438 1264.89 24.4883C1265.12 24.1328 1265.45 23.8555 1265.86 23.6562C1266.28 23.4531 1266.75 23.3516 1267.26 23.3516C1267.82 23.3516 1268.3 23.4434 1268.72 23.627C1269.13 23.8105 1269.45 24.084 1269.68 24.4473C1269.91 24.8105 1270.02 25.2539 1270.02 25.7773C1270.02 26.1367 1269.91 26.4863 1269.68 26.8262C1269.46 27.166 1269.13 27.4297 1268.72 27.6172ZM1272.44 30.4648C1272.7 30.4648 1272.9 30.541 1273.05 30.6934C1273.21 30.8457 1273.28 31.0391 1273.28 31.2734C1273.28 31.5039 1273.21 31.6953 1273.05 31.8477C1272.9 31.9961 1272.7 32.0703 1272.44 32.0703C1272.18 32.0703 1271.97 31.9961 1271.82 31.8477C1271.66 31.6953 1271.59 31.5039 1271.59 31.2734C1271.59 31.0391 1271.66 30.8457 1271.82 30.6934C1271.97 30.541 1272.18 30.4648 1272.44 30.4648ZM1272.44 25.5137C1272.7 25.5137 1272.9 25.5898 1273.05 25.7422C1273.21 25.8945 1273.28 26.0879 1273.28 26.3223C1273.28 26.5527 1273.21 26.7441 1273.05 26.8965C1272.9 27.0449 1272.7 27.1191 1272.44 27.1191C1272.18 27.1191 1271.97 27.0449 1271.82 26.8965C1271.66 26.7441 1271.59 26.5527 1271.59 26.3223C1271.59 26.0879 1271.66 25.8945 1271.82 25.7422C1271.97 25.5898 1272.18 25.5137 1272.44 25.5137ZM1278.76 27.6172C1279.25 27.7852 1279.61 28.0449 1279.84 28.3965C1280.08 28.748 1280.2 29.1523 1280.2 29.6094C1280.2 30.1289 1280.07 30.5781 1279.82 30.957C1279.57 31.3359 1279.23 31.625 1278.79 31.8242C1278.35 32.0195 1277.86 32.1172 1277.31 32.1172C1276.8 32.1172 1276.34 32.0254 1275.91 31.8418C1275.48 31.6543 1275.14 31.3789 1274.88 31.0156C1274.63 30.6523 1274.5 30.2148 1274.5 29.7031H1275.96C1275.96 29.9453 1276.02 30.1621 1276.13 30.3535C1276.24 30.541 1276.4 30.6875 1276.61 30.793C1276.82 30.8945 1277.06 30.9453 1277.33 30.9453C1277.77 30.9453 1278.12 30.8281 1278.36 30.5938C1278.61 30.3594 1278.74 30.0293 1278.74 29.6035C1278.74 29.1348 1278.6 28.7871 1278.33 28.5605C1278.06 28.334 1277.68 28.2207 1277.18 28.2207H1276.33V27.418V27.0723H1277.18C1277.65 27.0723 1278 26.9551 1278.24 26.7207C1278.49 26.4863 1278.61 26.1719 1278.61 25.7773C1278.61 25.3789 1278.5 25.0703 1278.29 24.8516C1278.07 24.6328 1277.75 24.5234 1277.33 24.5234C1277.08 24.5234 1276.86 24.5723 1276.67 24.6699C1276.47 24.7637 1276.32 24.8984 1276.21 25.0742C1276.1 25.25 1276.04 25.4551 1276.04 25.6895H1274.58C1274.58 25.2441 1274.7 24.8438 1274.93 24.4883C1275.17 24.1328 1275.49 23.8555 1275.91 23.6562C1276.32 23.4531 1276.79 23.3516 1277.31 23.3516C1277.86 23.3516 1278.35 23.4434 1278.76 23.627C1279.17 23.8105 1279.49 24.084 1279.72 24.4473C1279.95 24.8105 1280.07 25.2539 1280.07 25.7773C1280.07 26.1367 1279.95 26.4863 1279.73 26.8262C1279.5 27.166 1279.18 27.4297 1278.76 27.6172ZM1287.09 28.4141C1287.09 30.8828 1286.16 32.1172 1284.3 32.1172C1283.41 32.1172 1282.72 31.8223 1282.22 31.2324C1281.73 30.6426 1281.48 29.7031 1281.48 28.4141V27.0195C1281.48 25.7344 1281.73 24.8027 1282.22 24.2246C1282.71 23.6426 1283.39 23.3516 1284.29 23.3516C1285.18 23.3516 1285.87 23.6426 1286.35 24.2246C1286.85 24.8027 1287.09 25.7344 1287.09 27.0195V28.4141ZM1285.63 26.8027C1285.63 25.9824 1285.52 25.3984 1285.3 25.0508C1285.08 24.6992 1284.74 24.5234 1284.29 24.5234C1283.84 24.5234 1283.5 24.6992 1283.28 25.0508C1283.05 25.3984 1282.94 25.9824 1282.94 26.8027V28.6191C1282.94 29.4395 1283.06 30.0332 1283.28 30.4004C1283.51 30.7637 1283.85 30.9453 1284.3 30.9453C1284.75 30.9453 1285.08 30.7656 1285.3 30.4062C1285.52 30.043 1285.63 29.4473 1285.63 28.6191V26.8027Z" fill="#A6ACBE"/>
<path fill-rule="evenodd" clip-rule="evenodd" d="M1345.12 34.5H1343.88C1343.53 34.5 1343.25 34.2202 1343.25 33.875C1343.25 33.5298 1343.53 33.25 1343.88 33.25H1345.12C1345.47 33.25 1345.75 32.9702 1345.75 32.625V26.375C1345.75 26.0298 1345.47 25.75 1345.12 25.75H1335.12C1334.78 25.75 1334.5 25.4702 1334.5 25.125C1334.5 24.7798 1334.78 24.5 1335.12 24.5H1345.12C1346.16 24.5 1347 25.3395 1347 26.375V32.625C1347 33.6605 1346.16 34.5 1345.12 34.5ZM1336.38 33.875C1336.38 33.5298 1336.1 33.25 1335.75 33.25H1333.88C1333.53 33.25 1333.25 32.9702 1333.25 32.625V23.875C1333.25 23.5298 1333.53 23.25 1333.88 23.25H1337.73C1337.9 23.249 1338.06 23.3143 1338.18 23.4312L1338.43 23.6875C1338.68 23.8999 1339.05 23.8856 1339.28 23.6547C1339.51 23.4239 1339.52 23.0542 1339.31 22.8062L1339.06 22.55C1338.7 22.1983 1338.23 22.0004 1337.73 22H1333.88C1332.84 22 1332 22.8395 1332 23.875V32.625C1332 33.6605 1332.84 34.5 1333.88 34.5H1335.75C1336.1 34.5 1336.38 34.2202 1336.38 33.875ZM1339.94 34.3188L1342.44 31.8188C1342.66 31.5708 1342.64 31.2011 1342.41 30.9703C1342.18 30.7394 1341.81 30.7251 1341.56 30.9375L1340.13 32.3687V27.625C1340.13 27.2798 1339.85 27 1339.51 27C1339.16 27 1338.88 27.2798 1338.88 27.625V33.875C1338.88 34.1289 1339.03 34.3585 1339.27 34.4559C1339.5 34.5532 1339.77 34.499 1339.95 34.3188H1339.94ZM1338.07 32.4438C1338.31 32.2 1338.31 31.8063 1338.07 31.5625L1337.44 30.9375C1337.29 30.7591 1337.05 30.6815 1336.82 30.7364C1336.59 30.7913 1336.42 30.9696 1336.36 31.1979C1336.31 31.4262 1336.38 31.666 1336.56 31.8188L1337.19 32.4438C1337.43 32.6861 1337.83 32.6861 1338.07 32.4438Z" fill="#A6ACBE"/>
<path fill-rule="evenodd" clip-rule="evenodd" d="M1393.25 35C1392.47 34.9991 1391.78 34.4096 1391.56 33.5541L1385.07 31.462C1384.35 32.3639 1383.18 32.5949 1382.24 32.023C1381.3 31.4511 1380.81 30.222 1381.07 29.0379C1381.32 27.8539 1382.25 27.0166 1383.31 27.0044C1383.91 27.0036 1384.49 27.266 1384.93 27.7374L1388.89 24.6258C1389.05 23.6819 1389.78 22.9991 1390.62 23C1391.59 23 1392.37 23.8949 1392.37 24.9989C1392.37 26.1028 1391.59 26.9978 1390.62 26.9978C1390.3 26.9978 1390.03 26.6995 1390.03 26.3315C1390.03 25.9635 1390.3 25.6652 1390.62 25.6652C1390.93 25.6606 1391.18 25.3816 1391.19 25.0289C1391.21 24.6763 1390.98 24.3724 1390.67 24.3362C1390.36 24.2999 1390.08 24.5438 1390.03 24.8923C1389.98 25.2343 1389.8 25.5357 1389.55 25.7252L1385.13 29.1832C1384.99 29.2921 1384.82 29.3267 1384.65 29.2781C1384.49 29.2296 1384.35 29.1026 1384.28 28.93C1384 28.4337 1383.46 28.2077 1382.97 28.3748C1382.47 28.5419 1382.13 29.0621 1382.13 29.653C1382.13 30.2438 1382.47 30.7641 1382.97 30.9312C1383.46 31.0983 1384 30.8722 1384.28 30.3759C1384.41 30.1012 1384.69 29.9655 1384.95 30.0494L1391.85 32.2415C1392.25 32.3692 1392.56 32.7263 1392.66 33.181C1392.75 33.5074 1393.03 33.7095 1393.33 33.6499C1393.62 33.5902 1393.83 33.2879 1393.81 32.9486C1393.79 32.6093 1393.55 32.3418 1393.25 32.3282C1392.92 32.3282 1392.66 32.0298 1392.66 31.6619C1392.66 31.2939 1392.92 30.9956 1393.25 30.9956C1394.22 30.9956 1395 31.8905 1395 32.9944C1395 34.0984 1394.22 34.9933 1393.25 34.9933V35Z" fill="#A6ACBE"/>
<path fill-rule="evenodd" clip-rule="evenodd" d="M1430 28C1429.45 28 1429 28.4477 1429 29C1429 29.5523 1429.45 30 1430 30C1430.55 30 1431 29.5523 1431 29C1431 28.4477 1430.55 28 1430 28Z" fill="#A6ACBE"/>
<path fill-rule="evenodd" clip-rule="evenodd" d="M1434 28C1433.45 28 1433 28.4477 1433 29C1433 29.5523 1433.45 30 1434 30C1434.55 30 1435 29.5523 1435 29C1435 28.4477 1434.55 28 1434 28Z" fill="#A6ACBE"/>
<path fill-rule="evenodd" clip-rule="evenodd" d="M1438 28C1437.45 28 1437 28.4477 1437 29C1437 29.5523 1437.45 30 1438 30C1438.55 30 1439 29.5523 1439 29C1439 28.4477 1438.55 28 1438 28Z" fill="#A6ACBE"/>
<defs>
<filter id="filter0_d" x="0" y="0" width="1465" height="59" filterUnits="userSpaceOnUse" color-interpolation-filters="sRGB">
<feFlood flood-opacity="0" result="BackgroundImageFix"/>
<feColorMatrix in="SourceAlpha" type="matrix" values="0 0 0 0 0 0 0 0 0 0 0 0 0 0 0 0 0 0 127 0" result="hardAlpha"/>
<feOffset dy="1"/>
<feGaussianBlur stdDeviation="5"/>
<feColorMatrix type="matrix" values="0 0 0 0 0 0 0 0 0 0 0 0 0 0 0 0 0 0 0.1 0"/>
<feBlend mode="normal" in2="BackgroundImageFix" result="effect1_dropShadow"/>
<feBlend mode="normal" in="SourceGraphic" in2="effect1_dropShadow" result="shape"/>
</filter>
</defs>
</svg>
