<svg width="42" height="42" viewBox="0 0 42 42" fill="none" xmlns="http://www.w3.org/2000/svg">
<path fill-rule="evenodd" clip-rule="evenodd" d="M20.5755 41.3722C31.8802 41.3722 41.0445 32.2079 41.0445 20.9031C41.0445 9.59839 31.8802 0.434082 20.5755 0.434082C9.27075 0.434082 0.106445 9.59839 0.106445 20.9031C0.106445 32.2079 9.27075 41.3722 20.5755 41.3722Z" fill="#2AA3EF"/>
<path fill-rule="evenodd" clip-rule="evenodd" d="M29.5816 15.2787C28.9193 15.5746 28.2061 15.7746 27.459 15.8651C28.222 15.404 28.808 14.6755 29.0836 13.807C28.3693 14.2333 27.5788 14.5429 26.7363 14.7092C26.0623 13.9859 25.1023 13.5343 24.0394 13.5343C21.9984 13.5343 20.3432 15.1998 20.3432 17.2548C20.3432 17.5475 20.3771 17.8307 20.4396 18.1033C17.3686 17.9486 14.6462 16.4663 12.8235 14.2154C12.5046 14.765 12.3234 15.404 12.3234 16.0862C12.3234 17.3769 12.9761 18.516 13.9669 19.1824C13.3608 19.1635 12.7907 18.9961 12.2937 18.7171C12.2937 18.7329 12.2937 18.7487 12.2937 18.7645C12.2937 20.5668 13.5664 22.0702 15.2577 22.4123C14.9472 22.4976 14.6218 22.5428 14.2838 22.5428C14.0464 22.5428 13.8143 22.5197 13.5886 22.4755C14.0591 23.9536 15.424 25.0295 17.0411 25.06C15.7759 26.057 14.1821 26.6518 12.4505 26.6518C12.1527 26.6518 11.8581 26.635 11.5688 26.6002C13.204 27.6561 15.1464 28.272 17.234 28.272C24.0309 28.272 27.7483 22.6029 27.7483 17.6864C27.7483 17.5243 27.7441 17.3653 27.7377 17.2053C28.4594 16.681 29.0867 16.0252 29.5816 15.2798V15.2787Z" fill="white"/>
</svg>
